<?xml version="1.0" encoding="iso-8859-1"?>
<!-- Generator: Adobe Illustrator 19.0.0, SVG Export Plug-In . SVG Version: 6.00 Build 0)  -->
<svg xmlns="http://www.w3.org/2000/svg" xmlns:xlink="http://www.w3.org/1999/xlink" version="1.1" id="Layer_1" x="0px" y="0px" viewBox="0 0 481.04 481.04" style="enable-background:new 0 0 481.04 481.04;" xml:space="preserve" width="512px" height="512px">
<g>
	<g>
		<path d="M368.56,46.68c-6.992,0-14.016,0.704-21.352,2.136C319.808,17.96,280.72,0.36,239.2,0.36    c-41.088,0-80.048,17.432-107.592,47.992c-6.432-1.112-12.816-1.672-19.048-1.672C50.488,46.68,0,97.136,0,159.16    c0,62.064,50.496,112.56,112.56,112.56c2.176,0,4.32-0.216,6.48-0.336V456.68c0,13.232,10.768,24,24,24h192    c13.232,0,24-10.768,24-24V271.208c3.16,0.264,6.32,0.512,9.52,0.512c62.024,0,112.48-50.496,112.48-112.56    C481.04,97.136,430.584,46.68,368.56,46.68z M343.048,456.68h-0.008c0,4.408-3.584,8-8,8h-192c-4.416,0-8-3.592-8-8v-24h184    c4.424,0,8-3.584,8-8c0-4.416-3.576-8-8-8h-16v-48c0-4.416-3.576-8-8-8s-8,3.584-8,8v48h-40v-48c0-4.416-3.576-8-8-8s-8,3.584-8,8    v48h-40v-48c0-4.416-3.576-8-8-8s-8,3.584-8,8v48h-40V269.392c7.752-1.608,15.344-4.04,22.712-7.328    C181.944,278.608,210,287.32,239.2,287.32c29.728,0,58.144-8.944,82.488-25.912c6.928,3.2,14.072,5.584,21.36,7.296V456.68z     M368.56,255.72c-3.208,0-6.368-0.248-9.52-0.56v-14.48c0-4.416-3.576-8-8-8s-8,3.584-8,8v11.448    c-6.32-1.752-12.52-4.04-18.496-7.12c-2.704-1.392-5.992-1.12-8.448,0.704c-22.424,16.752-49.016,25.608-76.896,25.608    c-27.36,0-53.608-8.624-75.904-24.936c-1.4-1.016-3.056-1.544-4.728-1.544c-1.208,0-2.432,0.28-3.56,0.832    c-6.464,3.216-13.136,5.616-19.96,7.296V240.68c0-4.416-3.576-8-8-8c-4.424,0-8,3.584-8,8v14.664    c-2.152,0.144-4.296,0.376-6.48,0.376c-53.24,0-96.56-43.32-96.56-96.56c0-53.2,43.32-96.48,96.56-96.48    c6.592,0,13.416,0.744,20.296,2.208c7.872,4.392,36.304,22.496,34.048,53.864c-0.32,4.408,3,8.24,7.408,8.552    c0.192,0.008,0.384,0.016,0.576,0.016c4.16,0,7.672-3.216,7.968-7.424c2.44-33.84-21.584-55.28-35.448-64.752    C171.64,30.472,204.512,16.36,239.2,16.36c34.832,0,67.64,14.04,91.712,38.648c-13.808,9.12-38.544,30.448-36.088,65.192    c0.296,4.216,3.808,7.44,7.968,7.44c0.184,0,0.384-0.008,0.568-0.016c4.408-0.312,7.728-4.136,7.416-8.544    c-2.184-31.024,24.952-48.736,33.408-53.48c0.624,0.008,1.256-0.024,1.888-0.168c7.88-1.848,15.232-2.752,22.496-2.752    c53.192,0,96.48,43.28,96.48,96.48C465.04,212.4,421.76,255.72,368.56,255.72z" fill="#f57a6b"/>
	</g>
</g>
<g>
</g>
<g>
</g>
<g>
</g>
<g>
</g>
<g>
</g>
<g>
</g>
<g>
</g>
<g>
</g>
<g>
</g>
<g>
</g>
<g>
</g>
<g>
</g>
<g>
</g>
<g>
</g>
<g>
</g>
</svg>
