<?xml version="1.0" encoding="iso-8859-1"?>
<svg xmlns="http://www.w3.org/2000/svg" xmlns:xlink="http://www.w3.org/1999/xlink" version="1.1" viewBox="0 0 488.9 488.9" enable-background="new 0 0 488.9 488.9" width="512px" height="512px">
  <path d="m377.35,129.2l26.4-26.4-14.7-14.7-28.4,28.4c-30.4-21-66.8-34-105.8-36v-59.7h34.3v-20.8h-89.5v20.8h34.3v59.6c-107.5,5.4-194.4,93.8-194.4,203.6 0,113.4 92.6,204.9 204.9,204.9s204.9-92.6 204.9-204.9c0-61.8-28-117.4-72-154.8zm-132.9,339c-100.9,0-184.1-81.1-184.1-183.1s83.2-184.2 184.1-184.2 184.1,81.1 184.1,183.1-83.2,184.2-184.1,184.2z" fill="#f57465"/>
  <rect width="20.8" x="234.05" y="117.6" height="44.7" fill="#f57465"/>
  <rect width="20.8" x="234.05" y="405.8" height="44.7" fill="#f57465"/>
  <rect width="44.7" x="366.15" y="273.6" height="20.8" fill="#f57465"/>
  <rect width="44.7" x="77.95" y="273.6" height="20.8" fill="#f57465"/>
  <path d="m159.773,184.654l91.922,91.922-14.708,14.708-91.922-91.922 14.708-14.708z" fill="#f57465"/>
</svg>
