<?xml version="1.0" encoding="iso-8859-1"?>
<!-- Generator: Adobe Illustrator 16.0.0, SVG Export Plug-In . SVG Version: 6.00 Build 0)  -->
<!DOCTYPE svg PUBLIC "-//W3C//DTD SVG 1.1//EN" "http://www.w3.org/Graphics/SVG/1.1/DTD/svg11.dtd">
<svg xmlns="http://www.w3.org/2000/svg" xmlns:xlink="http://www.w3.org/1999/xlink" version="1.1" id="Capa_1" x="0px" y="0px" width="512px" height="512px" viewBox="0 0 516.375 516.375" style="enable-background:new 0 0 516.375 516.375;" xml:space="preserve">
<g>
	<path d="M258.188,0L19.125,210.375v267.75c0,21.037,17.212,38.25,38.25,38.25H459c21.037,0,38.25-17.213,38.25-38.25v-267.75   L258.188,0z M258.188,24.862l210.375,185.513l-172.125,153h-76.5l-172.125-153L258.188,24.862z M43.987,491.513   c-3.825-3.825-5.737-7.65-5.737-13.388V353.812V229.5l153,133.875L43.987,491.513z M66.938,497.25L200.812,382.5h114.75   l133.875,114.75H66.938z M478.125,353.812v124.312c0,5.737-1.912,9.562-5.737,13.388L325.125,363.375l153-133.875V353.812z" fill="#FFFFFF"/>
</g>
<g>
</g>
<g>
</g>
<g>
</g>
<g>
</g>
<g>
</g>
<g>
</g>
<g>
</g>
<g>
</g>
<g>
</g>
<g>
</g>
<g>
</g>
<g>
</g>
<g>
</g>
<g>
</g>
<g>
</g>
</svg>
