<?xml version="1.0" encoding="iso-8859-1"?>
<!-- Generator: Adobe Illustrator 16.0.0, SVG Export Plug-In . SVG Version: 6.00 Build 0)  -->
<!DOCTYPE svg PUBLIC "-//W3C//DTD SVG 1.1//EN" "http://www.w3.org/Graphics/SVG/1.1/DTD/svg11.dtd">
<svg xmlns="http://www.w3.org/2000/svg" xmlns:xlink="http://www.w3.org/1999/xlink" version="1.1" id="Capa_1" x="0px" y="0px" width="512px" height="512px" viewBox="0 0 442.117 442.118" style="enable-background:new 0 0 442.117 442.118;" xml:space="preserve">
<g>
	<g>
		<path d="M87.266,311.883c-6.278,0-12.162-2.447-16.577-6.873L6.862,241.163    c-2.127-2.075-3.9-4.734-5.089-7.639C0.595,230.642,0,227.64,0,224.601c0-2.997,0.578-5.953,1.71-8.789    c1.304-3.125,3.025-5.701,5.298-7.928l63.698-63.705c8.86-8.834,24.219-8.84,33.102-0.04c9.132,9.169,9.146,24.036,0.058,33.165    l-23.879,23.87h218.105c12.923,0,23.433,10.512,23.433,23.435c0,12.917-10.51,23.42-23.433,23.42H79.986l23.85,23.839    c9.086,9.154,9.092,24.016,0.029,33.119C99.396,309.448,93.513,311.883,87.266,311.883z M87.277,149.04    c-3.128,0-6.073,1.218-8.292,3.431l-63.739,63.747c-1.172,1.146-2.038,2.453-2.696,4.028c-0.549,1.364-0.84,2.856-0.84,4.354    c0,1.541,0.297,3.011,0.906,4.503c0.586,1.43,1.44,2.728,2.476,3.733l63.888,63.905c4.402,4.414,12.119,4.437,16.599-0.023    c4.52-4.54,4.514-11.99-0.04-16.582l-43.829-43.812h246.392c6.468,0,11.723-5.255,11.723-11.711    c0-6.467-5.255-11.725-11.723-11.725H51.72l43.866-43.849c4.543-4.562,4.526-12.014-0.04-16.599    C93.344,150.258,90.399,149.04,87.277,149.04z" fill="#FFFFFF"/>
	</g>
	<g>
		<polygon points="442.117,380.671 122.895,380.671 122.895,253.885 134.605,253.885 134.605,368.96     430.406,368.96 430.406,73.156 134.605,73.156 134.605,195.319 122.895,195.319 122.895,61.446 442.117,61.446   " fill="#FFFFFF"/>
	</g>
</g>
<g>
</g>
<g>
</g>
<g>
</g>
<g>
</g>
<g>
</g>
<g>
</g>
<g>
</g>
<g>
</g>
<g>
</g>
<g>
</g>
<g>
</g>
<g>
</g>
<g>
</g>
<g>
</g>
<g>
</g>
</svg>
