<?xml version="1.0" standalone="no"?>
<!DOCTYPE svg PUBLIC "-//W3C//DTD SVG 20010904//EN"
 "http://www.w3.org/TR/2001/REC-SVG-20010904/DTD/svg10.dtd">
<svg version="1.0" xmlns="http://www.w3.org/2000/svg"
 width="491.000000pt" height="469.000000pt" viewBox="0 0 491.000000 469.000000"
 preserveAspectRatio="xMidYMid meet">

<g transform="translate(0.000000,469.000000) scale(0.100000,-0.100000)"
fill="#000000" stroke="none">
<path d="M2023 4216 l-28 -24 0 -381 c0 -380 0 -380 22 -403 33 -33 89 -30
119 6 l24 27 0 315 0 314 1015 0 1015 0 0 -1715 0 -1715 -1015 0 -1015 0 0
314 c0 297 -1 315 -20 339 -39 49 -106 43 -135 -13 -14 -26 -15 -78 -13 -396
l3 -366 28 -24 28 -24 1125 0 1126 0 29 29 29 29 0 1827 0 1827 -29 29 -29 29
-1126 0 -1125 0 -28 -24z"/>
<path d="M1369 3287 c-35 -17 -884 -877 -893 -905 -4 -13 -5 -35 -1 -50 7 -30
852 -889 896 -911 56 -28 124 30 111 96 -3 15 -135 157 -364 389 l-360 364
1300 0 c932 0 1308 3 1325 11 52 24 60 87 18 130 l-29 29 -1307 0 -1307 0 361
365 c347 351 361 367 361 404 0 61 -59 102 -111 78z"/>
</g>
</svg>
