<?xml version="1.0" standalone="no"?>
<!DOCTYPE svg PUBLIC "-//W3C//DTD SVG 20010904//EN"
 "http://www.w3.org/TR/2001/REC-SVG-20010904/DTD/svg10.dtd">
<svg version="1.0" xmlns="http://www.w3.org/2000/svg"
 width="264.000000pt" height="256.000000pt" viewBox="0 0 264.000000 256.000000"
 preserveAspectRatio="xMidYMid meet">

<g transform="translate(0.000000,256.000000) scale(0.100000,-0.100000)"
fill="#000000" stroke="none">
<path d="M1050 2540 c-19 -19 -20 -33 -20 -268 0 -275 4 -292 60 -292 55 0 60
21 60 252 l0 208 690 0 690 0 0 -1160 0 -1160 -690 0 -690 0 0 208 c0 231 -5
252 -60 252 -56 0 -60 -17 -60 -292 0 -235 1 -249 20 -268 20 -20 33 -20 789
-20 l770 0 15 22 c14 20 16 156 16 1258 0 1102 -2 1238 -16 1258 l-15 22 -770
0 c-756 0 -769 0 -789 -20z"/>
<path d="M311 1619 c-163 -166 -300 -310 -305 -320 -5 -11 -5 -27 0 -38 5 -10
142 -154 305 -320 238 -242 301 -301 322 -301 28 0 57 32 57 64 0 13 -91 111
-247 268 l-247 248 887 0 c874 0 887 0 907 20 25 25 25 55 0 80 -20 20 -33 20
-907 20 l-887 0 247 248 c170 172 247 255 247 270 0 28 -34 62 -61 62 -15 0
-112 -92 -318 -301z"/>
</g>
</svg>
